# xmcd
#
# Track frame offsets: 
#        150
#        18143
#        38057
#        63907
#        85636
#        112176
#        130896
#        154241
#        170758
#        195553
#        207192
#        218920
#        243548
#        264382
#        274845
#        289100
#        301679
#        313773
#
# Disc length: 4348 seconds
#
# Revision: 0
# Processed by: cddbd v1.5.2PL0 Copyright (c) Steve Scherf et al.
# Submitted via: ExactAudioCopy v0.95b4
#
DISCID=0010fa12
DTITLE=Ray Charles - The Great Ray Charles [CD2 of 3) - The Great Ray 
DTITLE=Charles [1957]
DYEAR=2009
DGENRE=R&B
TTITLE0=The Ray
TTITLE1=My Melancholy Baby
TTITLE2=Ain't Misbehavin'
TTITLE3=There's No You
TTITLE4=Doodlin'
TTITLE5=Sweet Sixteen Bars
TTITLE6=I Surrender Dear
TTITLE7=Undecided
TTITLE8=Black Coffee [bonus track]
TTITLE9=Lonely Avenue [bonus track]
TTITLE10=What Would I Do Without You? [bonus track]
TTITLE11=Hornful Soul [bonus track]
TTITLE12=Joy Ride [bonus track]
TTITLE13=Hey Now [bonus track]
TTITLE14=Kissa Me Baby [bonus track]
TTITLE15=Heartbreaker [bonus track]
TTITLE16=I'm Glad For Your Sake [bonus track]
TTITLE17=It Should've Been Me [bonus track]
EXTD=
EXTT0=
EXTT1=
EXTT2=
EXTT3=
EXTT4=
EXTT5=
EXTT6=
EXTT7=
EXTT8=
EXTT9=
EXTT10=
EXTT11=
EXTT12=
EXTT13=
EXTT14=
EXTT15=
EXTT16=
EXTT17=
PLAYORDER=
